#!OML:ASF G:\JayActor3\Patient Classification 1\Patient 1\Session 5\male.ASF
:FULLY-SPECIFIED
:DEGREES
662
root 16.062 17.2977 -5.26385 274.933 81.498 275.651
lowerback 2.7177 -0.331104 10.5469
upperback 1.6023 -0.142026 1.19062
thorax 0.119404 0.0186114 -4.66892
lowerneck -7.58161 0.0154716 1.0396
upperneck 13.6613 -0.186675 1.32569
head 5.3621 0.101678 0.234473
rclavicle -7.95139e-016 -1.68967e-014
rhumerus -27.9574 -5.44864 -87.2768
rradius 25.7839
rwrist 3.85278
rhand -19.03 -9.32533
rfingers 7.12502
rthumb 7.27615 -39.1802
lclavicle -7.95139e-016 -1.68967e-014
lhumerus -31.7458 19.8722 76.9579
lradius 15.602
lwrist 8.55871
lhand -17.5891 11.2093
lfingers 7.12502
lthumb 8.66685 41.0114
rfemur 9.59913 -6.59066 32.9225
rtibia 18.3791
rfoot -3.31554 -3.36897
rtoes -7.56914
lfemur -25.0904 8.08685 -14.8136
ltibia 23.8583
lfoot 6.94064 1.40457
ltoes -23.4124
663
root 16.1895 17.2903 -5.26752 275.593 81.417 276.176
lowerback 2.58479 -0.30722 10.6619
upperback 1.58083 -0.123765 1.19137
thorax 0.174947 0.0303178 -4.73278
lowerneck -7.56403 0.0223522 1.04524
upperneck 13.5897 -0.180341 1.34021
head 5.33687 0.104733 0.238315
rclavicle -1.00635e-015 1.41137e-014
rhumerus -27.9948 -5.40295 -87.3565
rradius 25.7519
rwrist 3.95567
rhand -18.9806 -9.33954
rfingers 7.12502
rthumb 7.32387 -39.1928
lclavicle -1.00635e-015 1.41137e-014
lhumerus -31.7653 19.749 77.0015
lradius 15.6541
lwrist 8.63681
lhand -17.5941 11.2878
lfingers 7.12502
lthumb 8.66209 41.0901
rfemur 10.3438 -6.67742 32.8838
rtibia 17.5642
rfoot -2.94446 -3.30263
rtoes -7.8053
lfemur -25.3574 8.45768 -15.0806
ltibia 22.9929
lfoot 8.21622 0.476658
ltoes -23.9152
664
root 16.319 17.2839 -5.27152 276.299 81.3585 276.741
lowerback 2.44093 -0.279763 10.7539
upperback 1.55618 -0.103174 1.18299
thorax 0.233717 0.0429765 -4.79343
lowerneck -7.54982 0.0286839 1.05607
upperneck 13.5258 -0.175213 1.35328
head 5.31461 0.1075 0.240788
rclavicle -6.4605e-016 9.93923e-015
rhumerus -28.0373 -5.36614 -87.4352
rradius 25.708
rwrist 4.03985
rhand -18.9621 -9.32653
rfingers 7.12502
rthumb 7.34176 -39.1791
lclavicle -6.4605e-016 9.93923e-015
lhumerus -31.788 19.6302 77.0379
lradius 15.7017
lwrist 8.71053
lhand -17.5959 11.3976
lfingers 7.12502
lthumb 8.66028 41.1999
rfemur 11.0976 -6.75067 32.8174
rtibia 16.7259
rfoot -2.54314 -3.25772
rtoes -8.01449
lfemur -25.6056 8.77137 -15.36
ltibia 22.1985
lfoot 9.46989 -0.30307
ltoes -24.4841
665
root 16.4505 17.2785 -5.27585 277.071 81.3092 277.364
lowerback 2.28463 -0.248533 10.8361
upperback 1.52811 -0.0796921 1.16886
thorax 0.296461 0.0570272 -4.85458
lowerneck -7.54327 0.034709 1.0707
upperneck 13.4713 -0.170814 1.36415
head 5.29657 0.110102 0.241927
rclavicle -3.21783e-015 -5.56597e-015
rhumerus -28.0816 -5.34242 -87.5102
rradius 25.6491
rwrist 4.1285
rhand -18.944 -9.31211
rfingers 7.12502
rthumb 7.35918 -39.1641
lclavicle -3.21783e-015 -5.56597e-015
lhumerus -31.8146 19.5225 77.0635
lradius 15.7452
lwrist 8.78036
lhand -17.5941 11.5194
lfingers 7.12502
lthumb 8.66201 41.3217
rfemur 11.8675 -6.79831 32.7392
rtibia 15.8439
rfoot -2.1025 -3.23818
rtoes -8.19877
lfemur -25.8486 9.03074 -15.6322
ltibia 21.5027
lfoot 10.6919 -0.906449
ltoes -24.9669
666
root 16.5842 17.2744 -5.28041 277.939 81.2642 278.077
lowerback 2.12189 -0.212111 10.9134
upperback 1.49374 -0.0503023 1.14877
thorax 0.357301 0.0736052 -4.91932
lowerneck -7.53902 0.0408621 1.08683
upperneck 13.4265 -0.16675 1.3777
head 5.28199 0.112982 0.243655
rclavicle 1.10574e-015 3.45885e-014
rhumerus -28.1361 -5.34556 -87.5779
rradius 25.5739
rwrist 4.24319
rhand -18.9079 -9.31789
rfingers 7.12502
rthumb 7.39406 -39.1687
lclavicle 1.10574e-015 3.45885e-014
lhumerus -31.8526 19.4295 77.071
lradius 15.7857
lwrist 8.84294
lhand -17.6069 11.5929
lfingers 7.12502
lthumb 8.64972 41.3957
rfemur 12.6651 -6.80451 32.6565
rtibia 14.9008
rfoot -1.61283 -3.25363
rtoes -8.34917
lfemur -26.0926 9.24259 -15.8877
ltibia 20.9318
lfoot 11.8453 -1.33109
ltoes -25.294
667
root 16.7202 17.271 -5.28511 278.899 81.2117 278.875
lowerback 1.95013 -0.169762 10.9935
upperback 1.45516 -0.0141968 1.12771
thorax 0.42006 0.0934952 -4.98661
lowerneck -7.53803 0.0456265 1.10527
upperneck 13.3889 -0.16454 1.38871
head 5.27018 0.11502 0.24411
rclavicle -6.95746e-016 1.66979e-014
rhumerus -28.1961 -5.37384 -87.6365
rradius 25.4795
rwrist 4.38227
rhand -18.8838 -9.29991
rfingers 7.12502
rthumb 7.41727 -39.1499
lclavicle -6.95746e-016 1.66979e-014
lhumerus -31.8975 19.3686 77.0562
lradius 15.8158
lwrist 8.8814
lhand -17.6329 11.6131
lfingers 7.12502
lthumb 8.6246 41.4169
rfemur 13.4923 -6.76017 32.5857
rtibia 13.8923
rfoot -1.072 -3.31374
rtoes -8.47749
lfemur -26.3477 9.44925 -16.1242
ltibia 20.5029
lfoot 12.9148 -1.61986
ltoes -25.4721
668
root 16.8584 17.2677 -5.28978 279.965 81.1552 279.778
lowerback 1.77349 -0.1209 11.0701
upperback 1.4119 0.0298339 1.10426
thorax 0.482139 0.117083 -5.05439
lowerneck -7.53504 0.0485357 1.12418
upperneck 13.3566 -0.165035 1.40168
head 5.25969 0.116 0.244924
rclavicle 5.96354e-016 -2.38542e-014
rhumerus -28.2669 -5.42723 -87.6865
rradius 25.3677
rwrist 4.54025
rhand -18.8751 -9.26375
rfingers 7.12502
rthumb 7.42572 -39.1134
lclavicle 5.96354e-016 -2.38542e-014
lhumerus -31.9495 19.3533 77.0094
lradius 15.8247
lwrist 8.88184
lhand -17.6545 11.6309
lfingers 7.12502
lthumb 8.60373 41.4356
rfemur 14.3502 -6.66071 32.5245
rtibia 12.8252
rfoot -0.473512 -3.42231
rtoes -8.60201
lfemur -26.6074 9.67699 -16.3508
ltibia 20.2205
lfoot 13.882 -1.80072
ltoes -25.4876
669
root 16.9989 17.2643 -5.29436 281.143 81.0941 280.794
lowerback 1.59668 -0.0669513 11.1395
upperback 1.36744 0.0803466 1.08028
thorax 0.544294 0.143821 -5.11866
lowerneck -7.53787 0.0510782 1.13733
upperneck 13.3281 -0.165952 1.41838
head 5.25136 0.116791 0.247835
rclavicle -2.01269e-015 1.59028e-014
rhumerus -28.3421 -5.49411 -87.7288
rradius 25.246
rwrist 4.6969
rhand -18.8673 -9.23767
rfingers 7.12502
rthumb 7.43324 -39.0871
lclavicle -2.01269e-015 1.59028e-014
lhumerus -32.0057 19.3923 76.931
lradius 15.8124
lwrist 8.84196
lhand -17.6723 11.6509
lfingers 7.12502
lthumb 8.58658 41.4563
rfemur 15.2375 -6.5082 32.4714
rtibia 11.7085
rfoot 0.185444 -3.58064
rtoes -8.71299
lfemur -26.8646 9.95772 -16.5768
ltibia 20.083
lfoot 14.7401 -1.91385
ltoes -25.4271
670
root 17.1415 17.2604 -5.29876 282.438 81.0344 281.93
lowerback 1.42332 -0.00688099 11.1942
upperback 1.32135 0.139124 1.05304
thorax 0.604298 0.17437 -5.17796
lowerneck -7.53836 0.0516935 1.1448
upperneck 13.2957 -0.169432 1.44052
head 5.24145 0.116345 0.253184
rclavicle 2.95692e-015 6.55989e-015
rhumerus -28.4243 -5.57102 -87.7645
rradius 25.1169
rwrist 4.84759
rhand -18.8813 -9.18767
rfingers 7.12502
rthumb 7.41975 -39.0376
lclavicle 2.95692e-015 6.55989e-015
lhumerus -32.0675 19.4633 76.8296
lradius 15.7857
lwrist 8.77477
lhand -17.6834 11.6596
lfingers 7.12502
lthumb 8.5759 41.4654
rfemur 16.1457 -6.3113 32.4167
rtibia 10.5609
rfoot 0.904555 -3.78626
rtoes -8.82364
lfemur -27.1081 10.3034 -16.8144
ltibia 20.0751
lfoot 15.5043 -1.98376
ltoes -25.3643
671
root 17.2862 17.2563 -5.30316 283.857 80.9704 283.197
lowerback 1.25544 0.0569509 11.2377
upperback 1.27712 0.2033 1.0259
thorax 0.664191 0.207613 -5.23074
lowerneck -7.54645 0.0541924 1.14769
upperneck 13.262 -0.170003 1.46239
head 5.23242 0.117014 0.259393
rclavicle 2.69602e-015 4.79071e-014
rhumerus -28.5085 -5.64872 -87.7945
rradius 24.9837
rwrist 4.99343
rhand -18.8961 -9.14734
rfingers 7.12502
rthumb 7.40541 -38.9977
lclavicle 2.69602e-015 4.79071e-014
lhumerus -32.1309 19.5888 76.7023
lradius 15.7392
lwrist 8.66663
lhand -17.6921 11.6505
lfingers 7.12502
lthumb 8.56747 41.4567
rfemur 17.0684 -6.00931 32.3807
rtibia 9.39471
rfoot 1.6521 -4.10153
rtoes -8.91306
lfemur -27.3243 10.7028 -17.0529
ltibia 20.1837
lfoot 16.1854 -2.00805
ltoes -25.2977
672
root 17.4331 17.252 -5.30763 285.417 80.9092 284.613
lowerback 1.09525 0.125517 11.2618
upperback 1.2355 0.274336 0.995558
thorax 0.723701 0.244193 -5.27577
lowerneck -7.5626 0.0568826 1.14321
upperneck 13.2278 -0.170015 1.48698
head 5.2246 0.117738 0.267699
rclavicle -7.90169e-015 2.16675e-014
rhumerus -28.5985 -5.72209 -87.8203
rradius 24.8502
rwrist 5.12221
rhand -19.0078 -9.05431
rfingers 7.12502
rthumb 7.2976 -38.9085
lclavicle -7.90169e-015 2.16675e-014
lhumerus -32.2007 19.7323 76.5654
lradius 15.6913
lwrist 8.55087
lhand -17.7016 11.6479
lfingers 7.12502
lthumb 8.55832 41.4545
rfemur 18.0075 -5.68302 32.3288
rtibia 8.21914
rfoot 2.45319 -4.45977
rtoes -8.95309
lfemur -27.4936 11.1294 -17.2925
ltibia 20.3929
lfoot 16.784 -1.99731
ltoes -25.2677
673
root 17.5825 17.2473 -5.31228 287.075 80.8379 286.137
lowerback 0.941952 0.197363 11.281
upperback 1.19599 0.35052 0.965332
thorax 0.782535 0.283378 -5.31768
lowerneck -7.58759 0.0597994 1.13375
upperneck 13.1952 -0.169314 1.51118
head 5.21878 0.118541 0.276754
rclavicle -8.34896e-015 2.18663e-014
rhumerus -28.6916 -5.78424 -87.8415
rradius 24.7134
rwrist 5.23131
rhand -19.1 -8.97119
rfingers 7.12502
rthumb 7.20859 -38.8284
lclavicle -8.34896e-015 2.18663e-014
lhumerus -32.2775 19.8915 76.4204
lradius 15.6404
lwrist 8.43119
lhand -17.7064 11.6466
lfingers 7.12502
lthumb 8.55372 41.4533
rfemur 18.9608 -5.33753 32.2727
rtibia 7.03862
rfoot 3.29847 -4.86794
rtoes -8.93806
lfemur -27.6057 11.56 -17.5133
ltibia 20.6913
lfoot 17.2936 -2.00916
ltoes -25.2257
674
root 17.7346 17.2421 -5.31734 288.823 80.7554 287.766
lowerback 0.797833 0.27342 11.3009
upperback 1.15669 0.433521 0.93111
thorax 0.8378 0.325806 -5.3639
lowerneck -7.61179 0.0625718 1.12902
upperneck 13.1627 -0.169144 1.53372
head 5.21285 0.119214 0.284479
rclavicle -5.39203e-015 1.07344e-014
rhumerus -28.7971 -5.85039 -87.8586
rradius 24.5742
rwrist 5.3369
rhand -19.1665 -8.92152
rfingers 7.12502
rthumb 7.1444 -38.7809
lclavicle -5.39203e-015 1.07344e-014
lhumerus -32.3666 20.0515 76.2659
lradius 15.589
lwrist 8.31773
lhand -17.7103 11.6369
lfingers 7.12502
lthumb 8.54992 41.4438
rfemur 19.9219 -4.97226 32.2111
rtibia 5.87286
rfoot 4.1777 -5.33596
rtoes -8.84335
lfemur -27.6382 11.9398 -17.6943
ltibia 21.063
lfoot 17.674 -2.0106
ltoes -24.934
